<mxfile host="app.diagrams.net" modified="2021-09-21T14:15:37.248Z" agent="5.0 (Macintosh; Intel Mac OS X 10_15_7) AppleWebKit/537.36 (KHTML, like Gecko) Chrome/93.0.4577.82 Safari/537.36" etag="loVZGy3KV40NiuSpCTFk" version="15.2.9" type="github">
  <diagram name="Page-1" id="c4acf3e9-155e-7222-9cf6-157b1a14988f">
    <mxGraphModel dx="1838" dy="548" grid="1" gridSize="10" guides="1" tooltips="1" connect="1" arrows="1" fold="1" page="1" pageScale="1" pageWidth="850" pageHeight="1100" background="none" math="0" shadow="0">
      <root>
        <mxCell id="0" />
        <mxCell id="1" parent="0" />
        <mxCell id="17acba5748e5396b-20" value="Chart" style="swimlane;html=1;fontStyle=0;childLayout=stackLayout;horizontal=1;startSize=26;fillColor=#1ba1e2;horizontalStack=0;resizeParent=1;resizeLast=0;collapsible=1;marginBottom=0;swimlaneFillColor=#ffffff;rounded=0;shadow=0;comic=0;labelBackgroundColor=none;strokeWidth=1;fontFamily=Verdana;fontSize=10;align=center;strokeColor=#006EAF;fontColor=#ffffff;" parent="1" vertex="1">
          <mxGeometry x="350" y="60" width="160" height="80" as="geometry" />
        </mxCell>
        <mxCell id="17acba5748e5396b-21" value="&lt;span&gt;+&amp;nbsp;&lt;/span&gt;onDraw()&lt;br&gt;+&amp;nbsp;onMesure()&lt;br&gt;……" style="text;html=1;strokeColor=#006EAF;fillColor=#1ba1e2;align=left;verticalAlign=top;spacingLeft=4;spacingRight=4;whiteSpace=wrap;overflow=hidden;rotatable=0;points=[[0,0.5],[1,0.5]];portConstraint=eastwest;fontColor=#ffffff;" parent="17acba5748e5396b-20" vertex="1">
          <mxGeometry y="26" width="160" height="54" as="geometry" />
        </mxCell>
        <mxCell id="5d2195bd80daf111-21" style="edgeStyle=orthogonalEdgeStyle;rounded=0;html=1;labelBackgroundColor=none;startFill=0;endArrow=open;endFill=0;endSize=10;fontFamily=Verdana;fontSize=10;dashed=1;fillColor=#1ba1e2;strokeColor=#006EAF;" parent="1" source="5d2195bd80daf111-18" target="17acba5748e5396b-20" edge="1">
          <mxGeometry relative="1" as="geometry">
            <Array as="points">
              <mxPoint x="275" y="160" />
              <mxPoint x="430" y="160" />
            </Array>
          </mxGeometry>
        </mxCell>
        <mxCell id="5d2195bd80daf111-18" value="&lt;p style=&quot;margin: 0px ; margin-top: 4px ; text-align: center&quot;&gt;BarLineChartBase&lt;br&gt;&lt;/p&gt;&lt;hr size=&quot;1&quot;&gt;&lt;p style=&quot;margin: 0px ; margin-left: 4px&quot;&gt;&lt;br&gt;&lt;/p&gt;&lt;p style=&quot;margin: 0px ; margin-left: 4px&quot;&gt;+ zoom()&lt;br&gt;+&amp;nbsp;&lt;span style=&quot;font-family: &amp;#34;helvetica neue&amp;#34; ; font-size: 14px&quot;&gt;setDragEnabled()&lt;/span&gt;&lt;/p&gt;&lt;p style=&quot;margin: 0px ; margin-left: 4px&quot;&gt;………&lt;/p&gt;" style="verticalAlign=top;align=left;overflow=fill;fontSize=12;fontFamily=Helvetica;html=1;rounded=0;shadow=0;comic=0;labelBackgroundColor=none;strokeWidth=1;fillColor=#1ba1e2;strokeColor=#006EAF;fontColor=#ffffff;" parent="1" vertex="1">
          <mxGeometry x="140" y="190" width="180" height="90" as="geometry" />
        </mxCell>
        <mxCell id="5d2195bd80daf111-23" style="edgeStyle=orthogonalEdgeStyle;rounded=0;html=1;dashed=1;labelBackgroundColor=none;startFill=0;endArrow=open;endFill=0;endSize=10;fontFamily=Verdana;fontSize=10;fillColor=#1ba1e2;strokeColor=#006EAF;" parent="1" source="5d2195bd80daf111-19" target="17acba5748e5396b-20" edge="1">
          <mxGeometry relative="1" as="geometry">
            <Array as="points">
              <mxPoint x="635" y="160" />
              <mxPoint x="470" y="160" />
            </Array>
          </mxGeometry>
        </mxCell>
        <mxCell id="5d2195bd80daf111-19" value="&lt;p class=&quot;p1&quot; style=&quot;text-align: center ; margin: 0px ; font-stretch: normal ; font-size: 14px ; line-height: normal ; font-family: &amp;#34;helvetica neue&amp;#34;&quot;&gt;PieRadarChartBase&lt;/p&gt;&lt;hr size=&quot;1&quot;&gt;&lt;p style=&quot;margin: 0px ; margin-left: 4px&quot;&gt;&lt;br&gt;&lt;/p&gt;&lt;p style=&quot;margin: 0px ; margin-left: 4px&quot;&gt;+ spin()&lt;br&gt;+setRotationAngle()&lt;/p&gt;&lt;p style=&quot;margin: 0px ; margin-left: 4px&quot;&gt;…………&lt;/p&gt;" style="verticalAlign=top;align=left;overflow=fill;fontSize=12;fontFamily=Helvetica;html=1;rounded=0;shadow=0;comic=0;labelBackgroundColor=none;strokeWidth=1;fillColor=#1ba1e2;strokeColor=#006EAF;fontColor=#ffffff;" parent="1" vertex="1">
          <mxGeometry x="530" y="190" width="170" height="90" as="geometry" />
        </mxCell>
        <mxCell id="YwOH02yv-NfNGmyw-E54-27" value="" style="edgeStyle=orthogonalEdgeStyle;rounded=0;orthogonalLoop=1;jettySize=auto;html=1;" edge="1" parent="1" source="YwOH02yv-NfNGmyw-E54-3" target="5d2195bd80daf111-18">
          <mxGeometry relative="1" as="geometry" />
        </mxCell>
        <mxCell id="YwOH02yv-NfNGmyw-E54-3" value="&lt;p style=&quot;margin: 0px ; margin-top: 4px ; text-align: center&quot;&gt;BarChart&lt;br&gt;&lt;/p&gt;&lt;hr size=&quot;1&quot;&gt;&lt;p style=&quot;margin: 0px ; margin-left: 4px&quot;&gt;&lt;br&gt;&lt;/p&gt;" style="verticalAlign=top;align=left;overflow=fill;fontSize=12;fontFamily=Helvetica;html=1;rounded=0;shadow=0;comic=0;labelBackgroundColor=none;strokeWidth=1;fillColor=#1ba1e2;strokeColor=#006EAF;fontColor=#ffffff;" vertex="1" parent="1">
          <mxGeometry x="100" y="320" width="110" height="80" as="geometry" />
        </mxCell>
        <mxCell id="YwOH02yv-NfNGmyw-E54-6" value="&lt;p class=&quot;p1&quot; style=&quot;margin: 0px ; font-stretch: normal ; font-size: 14px ; line-height: normal ; font-family: &amp;quot;helvetica neue&amp;quot;&quot;&gt;HorizontalBarChart&lt;/p&gt;&lt;hr size=&quot;1&quot;&gt;&lt;p style=&quot;margin: 0px ; margin-left: 4px&quot;&gt;&lt;br&gt;&lt;/p&gt;" style="verticalAlign=top;align=center;overflow=fill;fontSize=12;fontFamily=Helvetica;html=1;rounded=0;shadow=0;comic=0;labelBackgroundColor=none;strokeWidth=1;fillColor=#1ba1e2;strokeColor=#006EAF;fontColor=#ffffff;" vertex="1" parent="1">
          <mxGeometry x="350" y="320" width="130" height="80" as="geometry" />
        </mxCell>
        <mxCell id="YwOH02yv-NfNGmyw-E54-10" value="&lt;span style=&quot;font-family: &amp;#34;helvetica neue&amp;#34; ; font-size: 14px&quot;&gt;CandleStickChart&lt;br&gt;&lt;/span&gt;&lt;hr size=&quot;1&quot;&gt;&lt;p style=&quot;margin: 0px ; margin-left: 4px&quot;&gt;&lt;br&gt;&lt;/p&gt;" style="verticalAlign=top;align=center;overflow=fill;fontSize=12;fontFamily=Helvetica;html=1;rounded=0;shadow=0;comic=0;labelBackgroundColor=none;strokeWidth=1;fillColor=#1ba1e2;strokeColor=#006EAF;fontColor=#ffffff;" vertex="1" parent="1">
          <mxGeometry x="-50" y="320" width="130" height="80" as="geometry" />
        </mxCell>
        <mxCell id="YwOH02yv-NfNGmyw-E54-28" value="" style="edgeStyle=orthogonalEdgeStyle;rounded=0;orthogonalLoop=1;jettySize=auto;html=1;" edge="1" parent="1" source="YwOH02yv-NfNGmyw-E54-12" target="5d2195bd80daf111-18">
          <mxGeometry relative="1" as="geometry" />
        </mxCell>
        <mxCell id="YwOH02yv-NfNGmyw-E54-12" value="&lt;p style=&quot;margin: 0px ; margin-top: 4px ; text-align: center&quot;&gt;LineChart&lt;br&gt;&lt;/p&gt;&lt;hr size=&quot;1&quot;&gt;&lt;p style=&quot;margin: 0px ; margin-left: 4px&quot;&gt;&lt;br&gt;&lt;/p&gt;" style="verticalAlign=top;align=left;overflow=fill;fontSize=12;fontFamily=Helvetica;html=1;rounded=0;shadow=0;comic=0;labelBackgroundColor=none;strokeWidth=1;fillColor=#1ba1e2;strokeColor=#006EAF;fontColor=#ffffff;" vertex="1" parent="1">
          <mxGeometry x="230" y="320" width="110" height="80" as="geometry" />
        </mxCell>
        <mxCell id="YwOH02yv-NfNGmyw-E54-25" value="" style="edgeStyle=orthogonalEdgeStyle;rounded=0;orthogonalLoop=1;jettySize=auto;html=1;" edge="1" parent="1" source="YwOH02yv-NfNGmyw-E54-14" target="5d2195bd80daf111-19">
          <mxGeometry relative="1" as="geometry" />
        </mxCell>
        <mxCell id="YwOH02yv-NfNGmyw-E54-14" value="&lt;p class=&quot;p1&quot; style=&quot;margin: 0px ; font-stretch: normal ; font-size: 14px ; line-height: normal ; font-family: &amp;#34;helvetica neue&amp;#34;&quot;&gt;PieChart&lt;/p&gt;&lt;hr size=&quot;1&quot;&gt;&lt;p style=&quot;margin: 0px ; margin-left: 4px&quot;&gt;&lt;br&gt;&lt;/p&gt;" style="verticalAlign=top;align=center;overflow=fill;fontSize=12;fontFamily=Helvetica;html=1;rounded=0;shadow=0;comic=0;labelBackgroundColor=none;strokeWidth=1;fillColor=#1ba1e2;strokeColor=#006EAF;fontColor=#ffffff;" vertex="1" parent="1">
          <mxGeometry x="490" y="320" width="130" height="80" as="geometry" />
        </mxCell>
        <mxCell id="YwOH02yv-NfNGmyw-E54-26" value="" style="edgeStyle=orthogonalEdgeStyle;rounded=0;orthogonalLoop=1;jettySize=auto;html=1;" edge="1" parent="1" source="YwOH02yv-NfNGmyw-E54-15" target="5d2195bd80daf111-19">
          <mxGeometry relative="1" as="geometry">
            <Array as="points">
              <mxPoint x="690" y="300" />
              <mxPoint x="615" y="300" />
            </Array>
          </mxGeometry>
        </mxCell>
        <mxCell id="YwOH02yv-NfNGmyw-E54-15" value="&lt;p class=&quot;p1&quot; style=&quot;margin: 0px ; font-stretch: normal ; font-size: 14px ; line-height: normal ; font-family: &amp;#34;helvetica neue&amp;#34;&quot;&gt;RadarChart&lt;/p&gt;&lt;hr size=&quot;1&quot;&gt;&lt;p style=&quot;margin: 0px ; margin-left: 4px&quot;&gt;&lt;br&gt;&lt;/p&gt;" style="verticalAlign=top;align=center;overflow=fill;fontSize=12;fontFamily=Helvetica;html=1;rounded=0;shadow=0;comic=0;labelBackgroundColor=none;strokeWidth=1;fillColor=#1ba1e2;strokeColor=#006EAF;fontColor=#ffffff;" vertex="1" parent="1">
          <mxGeometry x="640" y="320" width="130" height="80" as="geometry" />
        </mxCell>
        <mxCell id="YwOH02yv-NfNGmyw-E54-29" value="" style="edgeStyle=orthogonalEdgeStyle;rounded=0;orthogonalLoop=1;jettySize=auto;html=1;exitX=0.462;exitY=0;exitDx=0;exitDy=0;exitPerimeter=0;" edge="1" parent="1" source="YwOH02yv-NfNGmyw-E54-10">
          <mxGeometry relative="1" as="geometry">
            <mxPoint x="165.02857142857147" y="330" as="sourcePoint" />
            <mxPoint x="230" y="280" as="targetPoint" />
          </mxGeometry>
        </mxCell>
        <mxCell id="YwOH02yv-NfNGmyw-E54-30" value="" style="edgeStyle=orthogonalEdgeStyle;rounded=0;orthogonalLoop=1;jettySize=auto;html=1;exitX=0.5;exitY=0;exitDx=0;exitDy=0;" edge="1" parent="1" source="YwOH02yv-NfNGmyw-E54-6">
          <mxGeometry relative="1" as="geometry">
            <mxPoint x="295.02857142857147" y="330" as="sourcePoint" />
            <mxPoint x="230" y="280" as="targetPoint" />
          </mxGeometry>
        </mxCell>
      </root>
    </mxGraphModel>
  </diagram>
</mxfile>
